<svg width="971" height="970" viewBox="0 0 971 970" fill="none" xmlns="http://www.w3.org/2000/svg">
<path d="M420.184 812.512C413.731 814.244 408.95 816.981 405.473 820.996C402.516 824.411 400.62 828.621 399.367 833.607C397.722 827.409 395.279 822.713 391.622 819.224C387.96 815.73 383.243 813.603 377.339 812.26C382.43 810.862 386.621 809.021 390.046 806.19C394.169 802.782 397.017 798.09 399.156 791.507C400.807 798.204 403.242 802.97 407.151 806.398C410.497 809.333 414.789 811.154 420.184 812.512Z" fill="url(#paint0_linear_287_1367)" stroke="white" stroke-width="4.20863"/>
<path d="M791.782 316.083C764.502 267.116 725.898 225.314 679.2 194.178C632.502 163.041 579.069 143.474 523.373 137.116C467.677 130.757 411.338 137.791 359.071 157.629C306.805 177.467 260.131 209.532 222.956 251.141C185.781 292.75 159.187 342.691 145.399 396.786C131.61 450.881 131.029 507.555 143.704 562.066C156.379 616.576 181.942 667.338 218.252 710.101C254.562 752.865 300.563 786.387 352.406 807.862L362.442 783.48C314.512 763.626 271.982 732.634 238.412 693.097C204.842 653.561 181.209 606.63 169.491 556.233C157.772 505.836 158.309 453.439 171.057 403.427C183.805 353.414 208.392 307.242 242.761 268.773C277.131 230.305 320.282 200.66 368.604 182.319C416.927 163.977 469.014 157.474 520.507 163.353C572 169.232 621.4 187.322 664.574 216.109C707.748 244.896 743.439 283.542 768.66 328.814L791.782 316.083Z" fill="white"/>
<path d="M709 310.972L789 334.472L801.5 257.972" stroke="white" stroke-width="20"/>
<path d="M878.905 460.441C853.281 465.44 835.449 474.47 823.171 488.645C812.138 501.384 805.932 517.911 802.245 538.372C797.276 513.479 789.238 495.758 776.18 483.3C762.936 470.665 744.97 463.871 721.179 459.993C742.274 455.338 758.651 449.275 771.409 438.73C785.657 426.953 794.988 409.957 801.864 384.44C806.943 410.436 814.715 427.647 828.149 439.43C840.342 450.124 856.825 455.977 878.905 460.441Z" fill="url(#paint1_linear_287_1367)" stroke="white" stroke-width="7.85339"/>
<path d="M880.162 536.689C874.141 538.304 869.68 540.858 866.436 544.604C863.677 547.789 861.909 551.717 860.74 556.368C859.205 550.586 856.925 546.205 853.513 542.949C850.096 539.69 845.695 537.706 840.185 536.453C844.936 535.149 848.847 533.431 852.043 530.789C855.89 527.61 858.547 523.232 860.543 517.089C862.084 523.339 864.355 527.786 868.002 530.984C871.124 533.722 875.127 535.421 880.162 536.689Z" fill="url(#paint2_linear_287_1367)" stroke="white" stroke-width="3.9267"/>
<path d="M275 346L469.5 442.5M275 346V601L469.5 707M275 346L372.25 295.5M469.5 442.5V707M469.5 442.5L569 394.25M668.5 346L469.5 245L372.25 295.5M668.5 346V601L469.5 707M668.5 346L569 394.25M569 394.25L372.25 295.5" stroke="white" stroke-width="15"/>
<defs>
<linearGradient id="paint0_linear_287_1367" x1="415.946" y1="796.248" x2="382.189" y2="829.892" gradientUnits="userSpaceOnUse">
<stop stop-color="#001F65"/>
<stop offset="0.25" stop-color="#224887"/>
<stop offset="0.5" stop-color="#4471A9"/>
<stop offset="1" stop-color="#E8F0F9"/>
</linearGradient>
<linearGradient id="paint1_linear_287_1367" x1="853.833" y1="409.764" x2="748.588" y2="514.654" gradientUnits="userSpaceOnUse">
<stop stop-color="#001F65"/>
<stop offset="0.25" stop-color="#224887"/>
<stop offset="0.5" stop-color="#4471A9"/>
<stop offset="1" stop-color="#E8F0F9"/>
</linearGradient>
<linearGradient id="paint2_linear_287_1367" x1="876.208" y1="521.513" x2="844.712" y2="552.904" gradientUnits="userSpaceOnUse">
<stop stop-color="#001F65"/>
<stop offset="0.25" stop-color="#224887"/>
<stop offset="0.5" stop-color="#4471A9"/>
<stop offset="1" stop-color="#E8F0F9"/>
</linearGradient>
</defs>
</svg>
