<svg width="1519" height="1453" viewBox="0 0 1519 1453" fill="none" xmlns="http://www.w3.org/2000/svg">
<path d="M657.464 1238.35C647.368 1241.06 639.889 1245.34 634.449 1251.62C629.821 1256.97 626.855 1263.55 624.895 1271.36C622.321 1261.66 618.499 1254.31 612.776 1248.85C607.046 1243.38 599.666 1240.05 590.428 1237.95C598.394 1235.77 604.953 1232.88 610.312 1228.46C616.762 1223.12 621.218 1215.78 624.564 1205.48C627.149 1215.96 630.959 1223.42 637.074 1228.78C642.309 1233.37 649.023 1236.22 657.464 1238.35Z" fill="url(#paint0_linear_351_1502)" stroke="white" stroke-width="6.5853"/>
<path d="M1238.91 461.579C1196.23 384.96 1135.82 319.553 1062.75 270.832C989.684 222.112 906.077 191.496 818.928 181.547C731.78 171.597 643.626 182.604 561.843 213.645C480.061 244.686 407.03 294.858 348.862 359.964C290.694 425.069 249.081 503.213 227.507 587.856C205.932 672.499 205.023 761.178 224.856 846.472C244.689 931.765 284.686 1011.19 341.501 1078.1C398.316 1145.02 470.295 1197.47 551.415 1231.07L567.118 1192.92C492.121 1161.86 425.573 1113.36 373.046 1051.5C320.519 989.635 283.54 916.202 265.204 837.346C246.868 758.489 247.708 676.502 267.655 598.247C287.601 519.992 326.074 447.745 379.852 387.553C433.63 327.361 501.15 280.975 576.76 252.276C652.37 223.578 733.872 213.402 814.443 222.601C895.015 231.8 972.312 260.105 1039.87 305.149C1107.42 350.192 1163.27 410.663 1202.73 481.5L1238.91 461.579Z" fill="white"/>
<path d="M1109.38 453.582L1234.56 490.352L1254.12 370.652" stroke="white" stroke-width="31.2943"/>
<path d="M1375.22 687.459C1335.13 695.282 1307.24 709.41 1288.03 731.589C1270.76 751.522 1261.05 777.383 1255.28 809.399C1247.51 770.447 1234.93 742.718 1214.5 723.225C1193.78 703.457 1165.67 692.827 1128.44 686.758C1161.45 679.476 1187.07 669.986 1207.03 653.486C1229.33 635.059 1243.93 608.466 1254.69 568.54C1262.63 609.217 1274.8 636.145 1295.82 654.581C1314.89 671.313 1340.68 680.475 1375.22 687.459Z" fill="url(#paint1_linear_351_1502)" stroke="white" stroke-width="12.2883"/>
<path d="M1377.2 806.763C1367.78 809.292 1360.8 813.288 1355.72 819.148C1351.41 824.133 1348.64 830.28 1346.81 837.56C1344.41 828.511 1340.84 821.655 1335.5 816.561C1330.16 811.461 1323.27 808.355 1314.65 806.395C1322.08 804.354 1328.2 801.666 1333.2 797.533C1339.22 792.558 1343.38 785.709 1346.5 776.097C1348.91 785.875 1352.47 792.832 1358.17 797.837C1363.06 802.121 1369.32 804.78 1377.2 806.763Z" fill="url(#paint2_linear_351_1502)" stroke="white" stroke-width="6.14415"/>
<path d="M430.296 508.39L734.632 659.385M430.296 508.39V907.392L734.632 1073.25M430.296 508.39L582.464 429.372M734.632 659.385V1073.25M734.632 659.385L890.321 583.887M1046.01 508.39L734.632 350.354L582.464 429.372M1046.01 508.39V907.392L734.632 1073.25M1046.01 508.39L890.321 583.887M890.321 583.887L582.464 429.372" stroke="white" stroke-width="23.4707"/>
<defs>
<linearGradient id="paint0_linear_351_1502" x1="650.837" y1="1212.9" x2="598.015" y2="1265.54" gradientUnits="userSpaceOnUse">
<stop stop-color="#001F65"/>
<stop offset="0.25" stop-color="#224887"/>
<stop offset="0.5" stop-color="#4471A9"/>
<stop offset="1" stop-color="#E8F0F9"/>
</linearGradient>
<linearGradient id="paint1_linear_351_1502" x1="1336" y1="608.162" x2="1171.33" y2="772.286" gradientUnits="userSpaceOnUse">
<stop stop-color="#001F65"/>
<stop offset="0.25" stop-color="#224887"/>
<stop offset="0.5" stop-color="#4471A9"/>
<stop offset="1" stop-color="#E8F0F9"/>
</linearGradient>
<linearGradient id="paint2_linear_351_1502" x1="1371.01" y1="783.018" x2="1321.73" y2="832.135" gradientUnits="userSpaceOnUse">
<stop stop-color="#001F65"/>
<stop offset="0.25" stop-color="#224887"/>
<stop offset="0.5" stop-color="#4471A9"/>
<stop offset="1" stop-color="#E8F0F9"/>
</linearGradient>
</defs>
</svg>
