<svg width="1519" height="1476" viewBox="0 0 1519 1476" fill="none" xmlns="http://www.w3.org/2000/svg">
<path d="M661.569 1250.33C649.6 1252.92 641.108 1257.38 635.163 1264.24C629.906 1270.31 626.821 1278.06 624.926 1287.53C622.399 1275.95 618.422 1267.54 612.122 1261.53C605.752 1255.46 597.246 1252.06 586.179 1250.06C595.919 1247.77 603.621 1244.76 609.709 1239.73C616.654 1233.99 621.275 1225.82 624.696 1213.8C627.258 1226.04 631.137 1234.32 637.697 1240.07C643.551 1245.21 651.341 1248.13 661.569 1250.33Z" fill="url(#paint0_linear_382_199)" stroke="white" stroke-width="4.69414"/>
<path d="M1238.91 473.579C1196.23 396.96 1135.82 331.553 1062.75 282.832C989.683 234.112 906.076 203.496 818.928 193.547C731.779 183.597 643.625 194.604 561.843 225.645C480.061 256.686 407.03 306.858 348.862 371.964C290.694 437.069 249.081 515.213 227.506 599.856C205.932 684.499 205.023 773.178 224.856 858.472C244.688 943.765 284.686 1023.19 341.501 1090.1C398.315 1157.02 470.295 1209.47 551.414 1243.07L567.118 1204.92C492.12 1173.86 425.573 1125.36 373.046 1063.5C320.519 1001.64 283.54 928.202 265.204 849.346C246.868 770.489 247.708 688.502 267.654 610.247C287.601 531.992 326.073 459.745 379.851 399.553C433.629 339.361 501.149 292.975 576.76 264.276C652.37 235.578 733.871 225.402 814.443 234.601C895.014 243.8 972.312 272.105 1039.87 317.149C1107.42 362.192 1163.27 422.663 1202.73 493.5L1238.91 473.579Z" fill="black"/>
<path d="M1109.38 465.582L1234.56 502.352L1254.12 382.652" stroke="black" stroke-width="31.2943"/>
<path d="M1387.67 699.553C1341.3 706.76 1310.32 721.254 1289.71 745.051C1270.57 767.15 1260.81 796.801 1255.42 834.657C1247.95 789.066 1235.08 757.946 1212.96 736.84C1190.47 715.383 1158.95 704.802 1115.61 699.14C1154.57 691.515 1183.64 681.929 1205.61 663.766C1229.18 644.287 1244.12 615.372 1255.05 570.085C1262.9 616.269 1275.15 645.484 1297.29 664.904C1318.06 683.125 1347.09 692.266 1387.67 699.553Z" fill="url(#paint1_linear_382_199)" stroke="white" stroke-width="7.82356"/>
<path d="M1384.21 818.757C1371.49 821.031 1362.78 825.304 1356.86 832.136C1351.48 838.356 1348.56 846.533 1346.87 856.778C1344.58 844.367 1340.78 835.675 1334.46 829.651C1328.05 823.533 1319.24 820.351 1307.39 818.581C1317.95 816.364 1326.03 813.508 1332.24 808.371C1339.07 802.729 1343.48 794.491 1346.72 781.914C1349.09 794.733 1352.74 803.066 1359.17 808.704C1365.08 813.89 1373.18 816.634 1384.21 818.757Z" fill="url(#paint2_linear_382_199)" stroke="white" stroke-width="3.12943"/>
<path d="M430.295 520.39L734.632 671.385M430.295 520.39V919.392L734.632 1085.25M430.295 520.39L582.464 441.372M734.632 671.385V1085.25M734.632 671.385L890.321 595.887M1046.01 520.39L734.632 362.354L582.464 441.372M1046.01 520.39V919.392L734.632 1085.25M1046.01 520.39L890.321 595.887M890.321 595.887L582.464 441.372" stroke="black" stroke-width="23.4707"/>
<defs>
<linearGradient id="paint0_linear_382_199" x1="650.836" y1="1224.9" x2="598.015" y2="1277.54" gradientUnits="userSpaceOnUse">
<stop stop-color="#001F65"/>
<stop offset="0.25" stop-color="#224887"/>
<stop offset="0.5" stop-color="#4471A9"/>
<stop offset="1" stop-color="#E8F0F9"/>
</linearGradient>
<linearGradient id="paint1_linear_382_199" x1="1336" y1="620.162" x2="1171.32" y2="784.286" gradientUnits="userSpaceOnUse">
<stop stop-color="#001F65"/>
<stop offset="0.25" stop-color="#224887"/>
<stop offset="0.5" stop-color="#4471A9"/>
<stop offset="1" stop-color="#E8F0F9"/>
</linearGradient>
<linearGradient id="paint2_linear_382_199" x1="1371.01" y1="795.018" x2="1321.73" y2="844.135" gradientUnits="userSpaceOnUse">
<stop stop-color="#001F65"/>
<stop offset="0.25" stop-color="#224887"/>
<stop offset="0.5" stop-color="#4471A9"/>
<stop offset="1" stop-color="#E8F0F9"/>
</linearGradient>
</defs>
</svg>
